<svg width="16" height="15" viewBox="0 0 16 15" fill="none" xmlns="http://www.w3.org/2000/svg">
<path d="M1.22357 10.465L0.743308 10.3259L0.743308 10.3259L1.22357 10.465ZM2.06196 7.5702L1.5817 7.4311L1.5817 7.4311L2.06196 7.5702ZM2.06447 7.45114L2.55017 7.33241L2.55017 7.33241L2.06447 7.45114ZM1.0066 3.12349L0.520904 3.24221L0.520904 3.24221L1.0066 3.12349ZM1.01236 2.99412L0.539133 2.83271L0.539133 2.83271L1.01236 2.99412ZM1.63917 1.15643L2.1124 1.31784H2.1124L1.63917 1.15643ZM1.93957 1.01507L2.11685 0.547552L1.93957 1.01507ZM6.11326 2.59766L5.93598 3.06518V3.06518L6.11326 2.59766ZM1.22353 10.5933L1.70389 10.4546H1.70389L1.22353 10.5933ZM2.0001 13.2815L1.51974 13.4202L1.51974 13.4202L2.0001 13.2815ZM2.28051 13.4407L2.15365 12.9571L2.15365 12.9571L2.28051 13.4407ZM4.97937 12.7328L4.85252 12.2492L4.85251 12.2492L4.97937 12.7328ZM5.16756 12.7651L5.44822 12.3513L5.44822 12.3513L5.16756 12.7651ZM6.91876 13.9528L6.6381 14.3666L6.63811 14.3666L6.91876 13.9528ZM14.7764 10.465L15.2567 10.3259L15.2567 10.3259L14.7764 10.465ZM13.938 7.5702L14.4183 7.4311V7.4311L13.938 7.5702ZM13.9355 7.45114L14.4212 7.56986V7.56986L13.9355 7.45114ZM14.9934 3.12349L14.5077 3.00475L14.5077 3.00476L14.9934 3.12349ZM14.9876 2.99412L14.5144 3.15553V3.15553L14.9876 2.99412ZM14.3608 1.15643L14.8341 0.995019V0.995018L14.3608 1.15643ZM14.0604 1.01507L14.2377 1.48259V1.48259L14.0604 1.01507ZM9.88674 2.59766L10.064 3.06518L10.064 3.06518L9.88674 2.59766ZM14.7765 10.5933L14.2961 10.4546L14.2961 10.4546L14.7765 10.5933ZM13.9999 13.2815L14.4803 13.4202L14.4803 13.4202L13.9999 13.2815ZM13.7195 13.4407L13.8464 12.9571L13.8464 12.9571L13.7195 13.4407ZM11.0206 12.7328L11.1475 12.2492L11.1475 12.2492L11.0206 12.7328ZM10.8324 12.7651L10.5518 12.3513L10.5518 12.3513L10.8324 12.7651ZM9.08124 13.9528L9.3619 14.3666L9.3619 14.3666L9.08124 13.9528ZM6.89071 5.05359L7.19179 5.45278L6.89071 5.05359ZM5.19385 6.33343L5.49493 6.73262L5.19385 6.33343ZM5.12625 6.3665L5.25655 6.84922L5.25656 6.84922L5.12625 6.3665ZM2.66628 7.03054L2.79658 7.51326L2.79659 7.51326L2.66628 7.03054ZM2.42355 6.89077L1.94065 7.02038L1.94065 7.02038L2.42355 6.89077ZM1.46788 3.3301L0.984969 3.45971L0.984969 3.45971L1.46788 3.3301ZM1.47144 3.21571L1.94536 3.37508L1.94536 3.37508L1.47144 3.21571ZM1.99526 1.65803L1.52134 1.49866V1.49866L1.99526 1.65803ZM2.29545 1.55835L2.57991 1.14716L2.57991 1.14716L2.29545 1.55835ZM6.88414 4.73282L6.59967 5.14402L6.88414 4.73282ZM9.10929 5.05359L8.8082 5.45278L9.10929 5.05359ZM10.8062 6.33343L10.5051 6.73262L10.8062 6.33343ZM10.8737 6.3665L10.7434 6.84922L10.7434 6.84922L10.8737 6.3665ZM13.3337 7.03054L13.2034 7.51326L13.2034 7.51326L13.3337 7.03054ZM13.5764 6.89077L14.0594 7.02038V7.02038L13.5764 6.89077ZM14.5321 3.3301L15.015 3.45971V3.45971L14.5321 3.3301ZM14.5286 3.21571L14.0546 3.37508L14.5286 3.21571ZM14.0047 1.65803L13.5308 1.8174V1.8174L14.0047 1.65803ZM13.7046 1.55835L13.4201 1.14716V1.14716L13.7046 1.55835ZM9.11586 4.73282L9.40033 5.14402L9.11586 4.73282ZM5.60648 9.06808L5.3805 8.62207L5.60648 9.06808ZM6.34853 8.69211L6.12255 8.24609H6.12255L6.34853 8.69211ZM6.52584 8.75012L6.97175 8.52393L6.52584 8.75012ZM6.87332 9.43515L6.4274 9.66134L6.4274 9.66134L6.87332 9.43515ZM6.68149 9.66851L6.54587 10.1498H6.54587L6.68149 9.66851ZM5.63629 9.37395L5.77191 8.8927L5.63629 9.37395ZM10.3935 9.06808L10.6195 8.62207L10.3935 9.06808ZM9.65147 8.69211L9.87745 8.24609L9.65147 8.69211ZM9.47416 8.75012L9.02825 8.52393V8.52393L9.47416 8.75012ZM9.12669 9.43515L9.5726 9.66134V9.66134L9.12669 9.43515ZM9.31851 9.66851L9.45413 10.1498L9.31851 9.66851ZM10.3637 9.37395L10.2281 8.8927L10.3637 9.37395ZM6.90807 12.5623L6.41012 12.5171L6.90807 12.5623ZM6.96623 11.9226L7.46417 11.9678L7.46417 11.9678L6.96623 11.9226ZM7.07315 11.7203L7.39101 12.1063L7.07315 11.7203ZM7.17561 11.6359L7.49346 12.0219L7.49347 12.0219L7.17561 11.6359ZM9.09193 12.5623L9.58988 12.5171L9.09193 12.5623ZM9.03377 11.9226L8.53583 11.9678V11.9678L9.03377 11.9226ZM8.92685 11.7203L9.2447 11.3343L9.2447 11.3343L8.92685 11.7203ZM8.82439 11.6359L8.50653 12.0219L8.50654 12.0219L8.82439 11.6359ZM1.70384 10.6041L2.54223 7.70929L1.5817 7.4311L0.743308 10.3259L1.70384 10.6041ZM2.55017 7.33241L1.4923 3.00476L0.520904 3.24221L1.57877 7.56986L2.55017 7.33241ZM1.48559 3.15553L2.1124 1.31784L1.16594 0.995019L0.539133 2.83271L1.48559 3.15553ZM1.7623 1.48259L5.93598 3.06518L6.29053 2.13014L2.11685 0.547552L1.7623 1.48259ZM0.743172 10.7321L1.51974 13.4202L2.48045 13.1427L1.70389 10.4546L0.743172 10.7321ZM2.40736 13.9244L5.10622 13.2165L4.85251 12.2492L2.15365 12.9571L2.40736 13.9244ZM4.88689 13.1789L6.6381 14.3666L7.19942 13.539L5.44822 12.3513L4.88689 13.1789ZM6.63811 14.3666C6.75916 14.4487 6.90208 14.4926 7.04837 14.4926V13.4926C7.10223 13.4926 7.15485 13.5088 7.19941 13.539L6.63811 14.3666ZM5.10622 13.2165C5.03111 13.2362 4.95116 13.2225 4.8869 13.1789L5.44822 12.3513C5.27368 12.2329 5.05651 12.1957 4.85252 12.2492L5.10622 13.2165ZM1.51974 13.4202C1.62982 13.8013 2.02371 14.025 2.40736 13.9244L2.15365 12.9571C2.2949 12.92 2.43992 13.0024 2.48045 13.1427L1.51974 13.4202ZM5.93598 3.06518C6.01877 3.09657 6.10658 3.11266 6.19512 3.11266V2.11266C6.22772 2.11266 6.26005 2.11858 6.29053 2.13014L5.93598 3.06518ZM2.1124 1.31784C2.06327 1.46187 1.90459 1.53654 1.7623 1.48259L2.11685 0.547552C1.73037 0.401009 1.29937 0.603825 1.16594 0.995019L2.1124 1.31784ZM1.4923 3.00476C1.50449 3.05463 1.50216 3.10694 1.48559 3.15553L0.539133 2.83271C0.49412 2.96468 0.487795 3.10677 0.520904 3.24221L1.4923 3.00476ZM2.54223 7.70929C2.57778 7.58652 2.58052 7.45657 2.55017 7.33241L1.57877 7.56986C1.5676 7.52415 1.56861 7.47631 1.5817 7.4311L2.54223 7.70929ZM0.743308 10.3259C0.704888 10.4586 0.70484 10.5994 0.743172 10.7321L1.70389 10.4546C1.718 10.5034 1.71798 10.5553 1.70384 10.6041L0.743308 10.3259ZM15.2567 10.3259L14.4183 7.4311L13.4578 7.70929L14.2962 10.6041L15.2567 10.3259ZM14.4212 7.56986L15.4791 3.24221L14.5077 3.00476L13.4498 7.33241L14.4212 7.56986ZM15.4609 2.83271L14.8341 0.995019L13.8876 1.31784L14.5144 3.15553L15.4609 2.83271ZM13.8832 0.547552L9.70947 2.13014L10.064 3.06518L14.2377 1.48259L13.8832 0.547552ZM14.2961 10.4546L13.5195 13.1427L14.4803 13.4202L15.2568 10.7321L14.2961 10.4546ZM13.8464 12.9571L11.1475 12.2492L10.8938 13.2165L13.5926 13.9244L13.8464 12.9571ZM10.5518 12.3513L8.80058 13.539L9.3619 14.3666L11.1131 13.1789L10.5518 12.3513ZM8.80058 13.539C8.84515 13.5088 8.89777 13.4926 8.95163 13.4926V14.4926C9.09792 14.4926 9.24084 14.4487 9.3619 14.3666L8.80058 13.539ZM11.1475 12.2492C10.9435 12.1957 10.7263 12.2329 10.5518 12.3513L11.1131 13.1789C11.0488 13.2225 10.9689 13.2362 10.8938 13.2165L11.1475 12.2492ZM13.5195 13.1427C13.5601 13.0024 13.7051 12.92 13.8464 12.9571L13.5926 13.9244C13.9763 14.025 14.3702 13.8013 14.4803 13.4202L13.5195 13.1427ZM9.70947 2.13014C9.73995 2.11858 9.77228 2.11266 9.80488 2.11266V3.11266C9.89342 3.11266 9.98123 3.09657 10.064 3.06518L9.70947 2.13014ZM14.8341 0.995018C14.7006 0.603826 14.2696 0.401009 13.8832 0.547552L14.2377 1.48259C14.0954 1.53654 13.9367 1.46187 13.8876 1.31784L14.8341 0.995018ZM15.4791 3.24222C15.5122 3.10677 15.5059 2.96468 15.4609 2.83271L14.5144 3.15553C14.4978 3.10694 14.4955 3.05462 14.5077 3.00475L15.4791 3.24222ZM14.4183 7.4311C14.4314 7.47631 14.4324 7.52415 14.4212 7.56986L13.4498 7.33241C13.4195 7.45657 13.4222 7.58652 13.4578 7.70929L14.4183 7.4311ZM14.2962 10.6041C14.282 10.5553 14.282 10.5034 14.2961 10.4546L15.2568 10.7321C15.2952 10.5994 15.2951 10.4586 15.2567 10.3259L14.2962 10.6041ZM6.19512 3.11266H9.80488V2.11266H6.19512V3.11266ZM7.04837 14.4926H8.95163V13.4926H7.04837V14.4926ZM6.58963 4.6544L4.89276 5.93424L5.49493 6.73262L7.19179 5.45278L6.58963 4.6544ZM4.99594 5.88377L2.53597 6.54781L2.79659 7.51326L5.25655 6.84922L4.99594 5.88377ZM2.90646 6.76115L1.95079 3.20049L0.984969 3.45971L1.94065 7.02038L2.90646 6.76115ZM1.94536 3.37508L2.46918 1.8174L1.52134 1.49866L0.997514 3.05634L1.94536 3.37508ZM2.01098 1.96955L6.59967 5.14402L7.1686 4.32163L2.57991 1.14716L2.01098 1.96955ZM2.46918 1.8174C2.40511 2.00793 2.17629 2.08391 2.01098 1.96955L2.57991 1.14716C2.19799 0.882945 1.66936 1.05848 1.52134 1.49866L2.46918 1.8174ZM1.95079 3.20049C1.96621 3.25795 1.96432 3.31869 1.94536 3.37508L0.997515 3.05634C0.953701 3.18663 0.949337 3.32695 0.984969 3.45971L1.95079 3.20049ZM2.53598 6.54781C2.69721 6.50429 2.86317 6.59986 2.90646 6.76115L1.94065 7.02038C2.04066 7.39303 2.42408 7.61381 2.79658 7.51326L2.53598 6.54781ZM4.89276 5.93424C4.92361 5.91098 4.95864 5.89384 4.99594 5.88378L5.25656 6.84922C5.34274 6.82595 5.42366 6.78637 5.49493 6.73262L4.89276 5.93424ZM7.19179 5.45278C7.57155 5.16635 7.55979 4.59225 7.1686 4.32163L6.59967 5.14402C6.43035 5.02688 6.42525 4.77838 6.58963 4.6544L7.19179 5.45278ZM8.8082 5.45278L10.5051 6.73262L11.1072 5.93424L9.41037 4.6544L8.8082 5.45278ZM10.7434 6.84922L13.2034 7.51326L13.464 6.54781L11.0041 5.88377L10.7434 6.84922ZM14.0594 7.02038L15.015 3.45971L14.0492 3.20049L13.0935 6.76115L14.0594 7.02038ZM15.0025 3.05634L14.4787 1.49866L13.5308 1.8174L14.0546 3.37508L15.0025 3.05634ZM13.4201 1.14716L8.8314 4.32163L9.40033 5.14402L13.989 1.96955L13.4201 1.14716ZM14.4787 1.49866C14.3306 1.05848 13.802 0.882945 13.4201 1.14716L13.989 1.96955C13.8237 2.08391 13.5949 2.00793 13.5308 1.8174L14.4787 1.49866ZM15.015 3.45971C15.0507 3.32695 15.0463 3.18663 15.0025 3.05634L14.0546 3.37508C14.0357 3.31868 14.0338 3.25795 14.0492 3.20049L15.015 3.45971ZM13.2034 7.51326C13.5759 7.61381 13.9593 7.39303 14.0594 7.02038L13.0935 6.76115C13.1368 6.59986 13.3028 6.50429 13.464 6.54781L13.2034 7.51326ZM10.5051 6.73262C10.5763 6.78637 10.6573 6.82595 10.7434 6.84922L11.0041 5.88378C11.0414 5.89384 11.0764 5.91097 11.1072 5.93424L10.5051 6.73262ZM9.41037 4.6544C9.57475 4.77838 9.56965 5.02688 9.40033 5.14402L8.8314 4.32163C8.44021 4.59225 8.42844 5.16635 8.8082 5.45278L9.41037 4.6544ZM5.83246 9.5141L6.57451 9.13813L6.12255 8.24609L5.3805 8.62207L5.83246 9.5141ZM6.07992 8.97631L6.4274 9.66134L7.31923 9.20897L6.97175 8.52393L6.07992 8.97631ZM6.81712 9.18725L5.77191 8.8927L5.50066 9.8552L6.54587 10.1498L6.81712 9.18725ZM6.4274 9.66134C6.29535 9.40102 6.53617 9.10808 6.81712 9.18725L6.54587 10.1498C7.10339 10.3069 7.58127 9.72555 7.31923 9.20897L6.4274 9.66134ZM6.57451 9.13813C6.39325 9.22997 6.17185 9.15754 6.07992 8.97631L6.97175 8.52393C6.81391 8.21278 6.43378 8.08841 6.12255 8.24609L6.57451 9.13813ZM5.3805 8.62207C4.84005 8.8959 4.91751 9.69086 5.50066 9.8552L5.77191 8.8927C6.06578 8.97551 6.10481 9.37611 5.83247 9.5141L5.3805 8.62207ZM10.6195 8.62207L9.87745 8.24609L9.42549 9.13813L10.1675 9.5141L10.6195 8.62207ZM9.02825 8.52393L8.68077 9.20897L9.5726 9.66134L9.92008 8.97631L9.02825 8.52393ZM9.45413 10.1498L10.4993 9.8552L10.2281 8.8927L9.18288 9.18725L9.45413 10.1498ZM8.68077 9.20897C8.41874 9.72555 8.89661 10.3069 9.45413 10.1498L9.18288 9.18725C9.46383 9.10808 9.70465 9.40102 9.5726 9.66134L8.68077 9.20897ZM9.87745 8.24609C9.56622 8.08841 9.18609 8.21278 9.02825 8.52393L9.92008 8.97631C9.82815 9.15754 9.60675 9.22997 9.42549 9.13813L9.87745 8.24609ZM10.1675 9.5141C9.89519 9.37611 9.93423 8.97551 10.2281 8.8927L10.4993 9.8552C11.0825 9.69086 11.16 8.8959 10.6195 8.62207L10.1675 9.5141ZM7.40601 12.6076L7.46417 11.9678L6.46828 11.8773L6.41012 12.5171L7.40601 12.6076ZM7.39101 12.1063L7.49346 12.0219L6.85776 11.25L6.7553 11.3343L7.39101 12.1063ZM7.49347 12.0219C7.45709 12.0518 7.41144 12.0682 7.36433 12.0682V11.0682C7.17951 11.0682 7.00043 11.1325 6.85776 11.25L7.49347 12.0219ZM7.46417 11.9678C7.45926 12.0219 7.43291 12.0718 7.39101 12.1063L6.7553 11.3343C6.59092 11.4697 6.48756 11.6652 6.46828 11.8773L7.46417 11.9678ZM7.03947 12.2062C7.2559 12.2062 7.42561 12.3921 7.40601 12.6076L6.41012 12.5171C6.37648 12.8871 6.66786 13.2062 7.03947 13.2062V12.2062ZM9.58988 12.5171L9.53172 11.8773L8.53583 11.9678L8.59399 12.6076L9.58988 12.5171ZM9.2447 11.3343L9.14224 11.25L8.50654 12.0219L8.60899 12.1063L9.2447 11.3343ZM9.14224 11.25C8.99957 11.1325 8.82049 11.0682 8.63567 11.0682V12.0682C8.58855 12.0682 8.5429 12.0518 8.50653 12.0219L9.14224 11.25ZM9.53172 11.8773C9.51244 11.6652 9.40908 11.4697 9.2447 11.3343L8.60899 12.1063C8.56709 12.0718 8.54074 12.0219 8.53583 11.9678L9.53172 11.8773ZM8.96053 13.2062C9.33214 13.2062 9.62352 12.8871 9.58988 12.5171L8.59399 12.6076C8.57439 12.3921 8.7441 12.2062 8.96053 12.2062V13.2062ZM8.96053 12.2062H7.03947V13.2062H8.96053V12.2062ZM7.36433 12.0682H8.63567V11.0682H7.36433V12.0682Z" fill="#3A86FF"/>
</svg>
