<svg width="24" height="25" viewBox="0 0 24 25" fill="none" xmlns="http://www.w3.org/2000/svg">
<path d="M6.52115 10.3518L7.5111 10.4932L7.5111 10.4932L6.52115 10.3518ZM6.50507 10.4643L5.51512 10.3229L5.51512 10.3229L6.50507 10.4643ZM17.4788 10.3518L18.4687 10.2103V10.2103L17.4788 10.3518ZM17.4949 10.4643L16.5049 10.6057L16.5049 10.6057L17.4949 10.4643ZM15.2 20V21C15.7523 21 16.2 20.5523 16.2 20H15.2ZM8.8 20H7.8C7.8 20.5523 8.24771 21 8.8 21V20ZM7.60878 14.6447L8.39957 14.0326H8.39957L7.60878 14.6447ZM16.3912 14.6446L15.6004 14.0326L16.3912 14.6446ZM9.6 24.2H14.4V22.2H9.6V24.2ZM5.53121 10.2103L5.51512 10.3229L7.49502 10.6057L7.5111 10.4932L5.53121 10.2103ZM12 4.6C8.74811 4.6 5.99109 6.99114 5.5312 10.2103L7.5111 10.4932C7.83023 8.25928 9.74341 6.6 12 6.6V4.6ZM18.4687 10.2103C18.0089 6.99115 15.2518 4.6 12 4.6V6.6C14.2565 6.6 16.1697 8.25929 16.4888 10.4932L18.4687 10.2103ZM18.4848 10.3229L18.4687 10.2103L16.4888 10.4932L16.5049 10.6057L18.4848 10.3229ZM17.182 15.2567C18.221 13.9143 18.7476 12.1621 18.4848 10.3229L16.5049 10.6057C16.6877 11.885 16.3237 13.098 15.6004 14.0326L17.182 15.2567ZM14.2 17.4421V20H16.2V17.4421H14.2ZM15.2 19H8.8V21H15.2V19ZM9.8 20V17.4421H7.8V20H9.8ZM5.51512 10.3229C5.25238 12.1621 5.77894 13.9143 6.81798 15.2567L8.39957 14.0326C7.67625 13.0981 7.31227 11.885 7.49502 10.6057L5.51512 10.3229ZM9.8 17.4421C9.8 16.0541 9.06307 14.8898 8.39957 14.0326L6.81798 15.2567C7.4258 16.042 7.8 16.7531 7.8 17.4421H9.8ZM15.6004 14.0326C14.9369 14.8898 14.2 16.054 14.2 17.4421H16.2C16.2 16.7531 16.5742 16.042 17.182 15.2567L15.6004 14.0326ZM11 0V3.2H13V0H11ZM0 13H3.2V11H0V13ZM20.8 13H24V11H20.8V13ZM5.50711 5.69289L3.10711 3.29289L1.69289 4.70711L4.09289 7.10711L5.50711 5.69289ZM19.9071 7.10711L22.3071 4.70711L20.8929 3.29289L18.4929 5.69289L19.9071 7.10711Z" fill="#3A86FF"/>
</svg>
