<svg width="4" height="14" viewBox="0 0 4 14" fill="none" xmlns="http://www.w3.org/2000/svg">
<path fill-rule="evenodd" clip-rule="evenodd" d="M0.93332 1.66664C0.93332 1.07754 1.41088 0.599976 1.99999 0.599976C2.58909 0.599976 3.06665 1.07754 3.06665 1.66664C3.06665 2.25575 2.58909 2.73331 1.99999 2.73331C1.41088 2.73331 0.93332 2.25575 0.93332 1.66664ZM0.933319 6.99998C0.933319 6.41087 1.41088 5.93331 1.99999 5.93331C2.58909 5.93331 3.06665 6.41087 3.06665 6.99998C3.06665 7.58908 2.58909 8.06664 1.99999 8.06664C1.41088 8.06664 0.933319 7.58908 0.933319 6.99998ZM0.933319 12.3333C0.933319 11.7442 1.41088 11.2666 1.99999 11.2666C2.58909 11.2666 3.06665 11.7442 3.06665 12.3333C3.06665 12.9224 2.58909 13.4 1.99999 13.4C1.41088 13.4 0.933319 12.9224 0.933319 12.3333Z" fill="#222222"/>
</svg>
